<svg version="1.0" viewBox="0 0 32 32" xml:space="preserve" xmlns="http://www.w3.org/2000/svg"><path d="M15.996.007C7.162.007 0 7.168 0 16.004c0 6.551 3.938 12.177 9.575 14.65-.045-1.118-.008-2.459.278-3.672l2.058-8.719s-.512-1.021-.512-2.529c0-2.369 1.376-4.14 3.087-4.14 1.454 0 2.157 1.091 2.157 2.4 0 1.462-.934 3.65-1.412 5.676-.401 1.696.852 3.08 2.522 3.08 3.031 0 5.072-3.891 5.072-8.504 0-3.505-2.361-6.128-6.655-6.128-4.852 0-7.874 3.617-7.874 7.659 0 1.394.411 2.377 1.054 3.138.297.35.338.489.229.891-.074.296-.25 1.003-.324 1.283-.107.407-.434.551-.801.4-2.235-.91-3.275-3.358-3.275-6.11 0-4.543 3.831-9.993 11.433-9.993 6.106 0 10.128 4.42 10.128 9.164 0 6.275-3.491 10.963-8.633 10.963-1.728 0-3.353-.934-3.907-1.992 0 0-.93 3.686-1.125 4.396-.34 1.231-1.004 2.466-1.61 3.427a15.94 15.94 0 0 0 4.531.656c8.834 0 15.995-7.16 15.995-15.996S24.83.007 15.996.007z" fill="#e3e3e3" class="fill-ca2028"></path></svg>